<svg width="30" height="31" viewBox="0 0 30 31" fill="none" xmlns="http://www.w3.org/2000/svg">
<g clip-path="url(#clip0_578_35432)">
<mask id="mask0_578_35432" style="mask-type:alpha" maskUnits="userSpaceOnUse" x="8" y="8" width="24" height="25">
<rect x="8" y="8.5" width="24" height="24" fill="#D9D9D9"/>
</mask>
<g mask="url(#mask0_578_35432)">
<path d="M15 16.5501L11.325 20.2251C11.1875 20.3626 11.0125 20.4313 10.8 20.4313C10.5875 20.4313 10.4125 20.3626 10.275 20.2251C10.1375 20.0876 10.0687 19.9126 10.0687 19.7001C10.0687 19.4876 10.1375 19.3126 10.275 19.1751L13.95 15.5001L10.275 11.8251C10.1375 11.6876 10.0687 11.5126 10.0687 11.3001C10.0687 11.0876 10.1375 10.9126 10.275 10.7751C10.4125 10.6376 10.5875 10.5688 10.8 10.5688C11.0125 10.5688 11.1875 10.6376 11.325 10.7751L15 14.4501L18.675 10.7751C18.8125 10.6376 18.9875 10.5688 19.2 10.5688C19.4125 10.5688 19.5875 10.6376 19.725 10.7751C19.8625 10.9126 19.9312 11.0876 19.9312 11.3001C19.9312 11.5126 19.8625 11.6876 19.725 11.8251L16.05 15.5001L19.725 19.1751C19.8625 19.3126 19.9312 19.4876 19.9312 19.7001C19.9312 19.9126 19.8625 20.0876 19.725 20.2251C19.5875 20.3626 19.4125 20.4313 19.2 20.4313C18.9875 20.4313 18.8125 20.3626 18.675 20.2251L15 16.5501Z" fill="black"/>
</g>
</g>
<defs>
<clipPath id="clip0_578_35432">
<rect y="0.5" width="30" height="30" rx="15" fill="white"/>
</clipPath>
</defs>
</svg>
